HIERARCHY
ROOT simHips
{
  OFFSET -190.129 99.8904 31.6836
  CHANNELS 6 Xposition Yposition Zposition Zrotation Xrotation Yrotation
  JOINT simSpine
  {
    OFFSET -0.000355721 21.3001 -0.016921
    CHANNELS 3 Zrotation Xrotation Yrotation
    JOINT simLeftArm
    {
      OFFSET 13.5181 21.3012 0
      CHANNELS 3 Zrotation Xrotation Yrotation
      JOINT simLeftForeArm
      {
        OFFSET 24.5783 0 0
        CHANNELS 3 Zrotation Xrotation Yrotation
        JOINT simLeftHand
        {
          OFFSET 24.5783 0 0
          CHANNELS 3 Zrotation Xrotation Yrotation
          End Site
          {
            OFFSET 7.32568 1.52588e-05 0.0169305
          }
        }
      }
    }
    JOINT simHead
    {
      OFFSET 0 27.4458 -0.00489235
      CHANNELS 3 Zrotation Xrotation Yrotation
      End Site
      {
        OFFSET 0 0 0
      }
    }
    JOINT simRightArm
    {
      OFFSET -13.5174 21.3012 0
      CHANNELS 3 Zrotation Xrotation Yrotation
      JOINT simRightForeArm
      {
        OFFSET -24.5783 0 0
        CHANNELS 3 Zrotation Xrotation Yrotation
        JOINT simRightHand
        {
          OFFSET -24.5783 0 0
          CHANNELS 3 Zrotation Xrotation Yrotation
          End Site
          {
            OFFSET -7.32568 1.52588e-05 0.0169305
          }
        }
      }
    }
  }
  JOINT simRightUpLeg
  {
    OFFSET -8.44614 -9.41038 0.835684
    CHANNELS 3 Zrotation Xrotation Yrotation
    JOINT simRightLeg
    {
      OFFSET 0 -40.9639 0
      CHANNELS 3 Zrotation Xrotation Yrotation
      JOINT simRightFoot
      {
        OFFSET 0 -40.9639 0
        CHANNELS 3 Zrotation Xrotation Yrotation
        End Site
        {
          OFFSET 0.50614 -9.67405 14.6709
        }
      }
    }
  }
  JOINT simLeftUpLeg
  {
    OFFSET 8.44614 -9.41038 0.835684
    CHANNELS 3 Zrotation Xrotation Yrotation
    JOINT simLeftLeg
    {
      OFFSET 0 -40.9639 0
      CHANNELS 3 Zrotation Xrotation Yrotation
      JOINT simLeftFoot
      {
        OFFSET 0 -40.9639 0
        CHANNELS 3 Zrotation Xrotation Yrotation
        End Site
        {
          OFFSET -0.50614 -9.67405 14.6709
        }
      }
    }
  }
}
MOTION
Frames:	8
Frame Time:	0.0333333
-190.129 99.8904 31.6836 -0.0118519 -0.204093 -0.769604 -0.00701918 -0.0196819 -0.320029 17.9485 -6.71049 4.43412 -1.6345 0.0178384 1.55189e-06 -1.17532 1.29008 0.366574 -0.200275 -0.225262 -9.76942 -15.4862 -11.1566 -5.73951 1.02668 0.225217 6.35301e-05 -1.06275 -2.16458 -1.43453 3.50901 0.119705 0.731104 0.0621131 0.096049 0.00604409 -3.55773 0.0620215 0.0741573 -1.71261 -1.10278 0.41262 0.129612 0.970054 0.0152601 1.62798 0.258122 0.374913 
-190.127 99.891 31.666 -0.0242817 -0.169516 -0.752468 -0.01804 -0.00654334 -0.321893 17.8579 -6.65675 4.37884 -1.53614 0.0178384 1.55189e-06 -1.14267 1.23569 0.371282 -0.168175 -0.2377 -9.70734 -15.5272 -11.2247 -5.67469 1.01878 0.225217 6.35301e-05 -1.10653 -2.27411 -1.42115 3.52955 0.077352 0.706163 0.0466297 0.0790463 0.00604408 -3.54106 0.0849201 0.0893338 -1.67506 -1.17338 0.582487 0.0980264 0.921459 0.0152599 1.64769 0.315411 0.170953 
-190.118 99.8907 31.6642 -0.0263168 -0.146086 -0.77908 -0.0295596 -0.00126123 -0.278186 17.7462 -6.66236 4.27803 -1.48485 0.0178384 1.55189e-06 -0.965818 1.17117 0.347732 -0.234478 -0.242964 -9.63874 -15.5995 -11.2768 -5.57373 1.0529 0.225217 6.35301e-05 -1.19953 -2.29358 -1.49013 3.53779 0.0730762 0.713518 0.0218664 0.0430142 0.00604408 -3.52456 0.104673 0.110615 -1.69509 -1.16734 0.637975 0.128831 0.971452 0.0152601 1.62987 0.25971 0.148478 
-190.127 99.8911 31.658 -0.030423 -0.0898532 -0.771712 -0.0704585 -0.0211268 -0.295529 17.6391 -6.71385 4.26705 -1.42417 0.0178384 1.55189e-06 -0.897844 1.17293 0.328776 -0.30211 -0.264235 -9.5181 -15.6052 -11.3182 -5.45925 1.08195 0.225217 6.35301e-05 -1.14609 -2.26106 -1.39426 3.53614 0.0232066 0.706943 0.0462836 -0.00397408 0.00604408 -3.55334 0.121094 0.114006 -1.69762 -1.19901 0.647101 0.134449 0.888613 0.0152598 1.63076 0.320562 0.147202 
-190.129 99.8914 31.6611 -0.0322148 -0.0483347 -0.767357 -0.0811143 -0.0406579 -0.296901 17.5217 -6.60099 4.23849 -1.38998 0.0178384 1.55189e-06 -0.954468 1.07639 0.278881 -0.383923 -0.247444 -9.4528 -15.559 -11.3799 -5.36131 1.07166 0.225799 6.35301e-05 -1.16248 -2.40112 -1.52595 3.56237 -0.0326764 0.695012 0.0143309 0.0174616 0.00604408 -3.53975 0.123774 0.106452 -1.67722 -1.25424 0.603911 0.123336 0.929603 0.0152599 1.6311 0.286046 0.180352 
-190.14 99.8917 31.6684 -0.0338017 -0.031687 -0.761125 -0.10486 -0.0226123 -0.286429 17.482 -6.71883 4.15449 -1.46391 0.0178384 1.55189e-06 -1.00315 1.2213 0.304442 -0.461855 -0.283781 -9.32693 -15.5029 -11.4549 -5.30544 1.07182 0.226696 6.35301e-05 -1.25826 -2.44484 -1.56243 3.58094 -0.0921913 0.689061 0.00414451 0.115861 0.00604409 -3.54571 0.0708141 0.127098 -1.65799 -1.32099 0.614615 0.108477 0.98923 0.0152602 1.62995 0.261881 0.154603 
-190.146 99.8918 31.6744 -0.0348882 -0.0161687 -0.761356 -0.124961 -0.0308569 -0.26647 17.3991 -6.71854 4.09313 -1.50283 0.0178384 1.55189e-06 -0.960823 1.25929 0.307629 -0.597431 -0.278538 -9.26975 -15.4604 -11.4978 -5.25988 1.08122 0.227459 6.35301e-05 -1.29086 -2.52246 -1.61273 3.59224 -0.0953292 0.689625 -0.00216894 0.0968135 0.00604409 -3.55463 0.0623501 0.127206 -1.65821 -1.29893 0.669633 0.113502 0.926543 0.0152599 1.62416 0.29034 0.101745 
-190.163 99.892 31.673 -0.0352755 0.0153066 -0.712456 -0.165607 -0.0111644 -0.290527 17.3323 -6.68161 4.09913 -1.4949 0.01025 1.55189e-06 -1.07062 1.17175 0.279484 -0.654652 -0.349408 -9.1654 -15.4014 -11.6199 -5.24404 1.08678 0.228382 6.35301e-05 -1.2873 -2.49229 -1.62732 3.58431 -0.0820716 0.584458 0.019661 0.00144447 0.00604408 -3.55515 0.126956 0.199839 -1.6588 -1.3547 0.5678 0.128215 0.929253 0.0152599 1.60345 0.32983 0.160567 
